<svg xmlns="http://www.w3.org/2000/svg" xmlns:xlink="http://www.w3.org/1999/xlink" width="666" zoomAndPan="magnify" viewBox="0 0 499.5 129.000003" height="172" preserveAspectRatio="xMidYMid meet" version="1.0"><defs><g/></defs><g fill="#000000" fill-opacity="1"><g transform="translate(39.404179, 79.180011)"><g><path d="M 1.082031 -14.636719 C 1.082031 -11.527344 2.886719 -9.554688 6.332031 -8.804688 L 9.554688 -8.082031 C 11.21875 -7.722656 11.914062 -6.914062 11.914062 -5.554688 C 11.914062 -3.859375 10.414062 -2.832031 8.054688 -2.832031 C 5.777344 -2.832031 4.386719 -3.859375 4.359375 -5.582031 L 0.804688 -5.582031 C 0.890625 -1.945312 3.722656 0.359375 8.054688 0.359375 C 12.527344 0.359375 15.46875 -2.082031 15.46875 -5.859375 C 15.46875 -8.886719 13.773438 -10.664062 10.304688 -11.414062 L 7.109375 -12.109375 C 5.414062 -12.496094 4.636719 -13.304688 4.636719 -14.746094 C 4.636719 -16.441406 6.054688 -17.496094 8.25 -17.496094 C 10.25 -17.496094 11.496094 -16.46875 11.582031 -14.71875 L 15.136719 -14.71875 C 15.023438 -18.386719 12.414062 -20.664062 8.304688 -20.664062 C 4.027344 -20.664062 1.082031 -18.191406 1.082031 -14.636719 Z M 1.082031 -14.636719 "/></g></g></g><g fill="#000000" fill-opacity="1"><g transform="translate(55.839239, 79.180011)"><g><path d="M 9.554688 0 C 15.441406 0 19.496094 -4.136719 19.496094 -10.109375 C 19.496094 -16.164062 15.359375 -20.300781 9.359375 -20.300781 L 2.25 -20.300781 L 2.25 0 Z M 9.027344 -17.023438 C 13.21875 -17.023438 15.746094 -14.414062 15.746094 -10.109375 C 15.746094 -5.886719 13.273438 -3.277344 9.21875 -3.277344 L 5.804688 -3.277344 L 5.804688 -17.023438 Z M 9.027344 -17.023438 "/></g></g></g><g fill="#000000" fill-opacity="1"><g transform="translate(76.383056, 79.180011)"><g><path d="M 14.859375 0 L 14.859375 -3.277344 L 5.804688 -3.277344 L 5.804688 -8.664062 L 13.914062 -8.664062 L 13.914062 -11.804688 L 5.804688 -11.804688 L 5.804688 -17.023438 L 14.859375 -17.023438 L 14.859375 -20.300781 L 2.25 -20.300781 L 2.25 0 Z M 14.859375 0 "/></g></g></g><g fill="#000000" fill-opacity="1"><g transform="translate(92.845876, 79.180011)"><g/></g></g><g fill="#000000" fill-opacity="1"><g transform="translate(100.341592, 79.180011)"><g><path d="M 5.804688 0 L 5.804688 -7.582031 L 10.164062 -7.582031 L 13.609375 0 L 17.496094 0 L 13.636719 -8.332031 C 16.023438 -9.304688 17.300781 -11.246094 17.300781 -13.96875 C 17.300781 -17.96875 14.609375 -20.300781 10 -20.300781 L 2.25 -20.300781 L 2.25 0 Z M 5.804688 -17.136719 L 10 -17.136719 C 12.246094 -17.136719 13.582031 -15.996094 13.582031 -13.96875 C 13.582031 -11.914062 12.246094 -10.71875 10 -10.71875 L 5.804688 -10.71875 Z M 5.804688 -17.136719 "/></g></g></g><g fill="#000000" fill-opacity="1"><g transform="translate(118.94208, 79.180011)"><g><path d="M 7.886719 0.359375 C 11.46875 0.359375 13.96875 -1.445312 14.554688 -4.445312 L 11.414062 -4.445312 C 11.027344 -3.136719 9.804688 -2.417969 7.941406 -2.417969 C 5.695312 -2.417969 4.414062 -3.636719 4.164062 -6.054688 L 14.496094 -6.082031 L 14.496094 -7.109375 C 14.496094 -11.386719 11.886719 -14.136719 7.777344 -14.136719 C 3.75 -14.136719 0.945312 -11.164062 0.945312 -6.859375 C 0.945312 -2.609375 3.804688 0.359375 7.886719 0.359375 Z M 7.804688 -11.359375 C 9.832031 -11.359375 11.136719 -10.109375 11.136719 -8.222656 L 4.25 -8.222656 C 4.582031 -10.277344 5.804688 -11.359375 7.804688 -11.359375 Z M 7.804688 -11.359375 "/></g></g></g><g fill="#000000" fill-opacity="1"><g transform="translate(134.405475, 79.180011)"><g><path d="M 5.832031 0.359375 C 7.972656 0.359375 9.832031 -0.609375 10.414062 -2.027344 L 10.664062 0 L 13.636719 0 L 13.636719 -8.332031 C 13.636719 -12.136719 11.359375 -14.136719 7.664062 -14.136719 C 3.945312 -14.136719 1.5 -12.191406 1.5 -9.21875 L 4.386719 -9.21875 C 4.386719 -10.664062 5.5 -11.496094 7.5 -11.496094 C 9.21875 -11.496094 10.332031 -10.746094 10.332031 -8.886719 L 10.332031 -8.582031 L 6.222656 -8.277344 C 2.972656 -8.027344 1.140625 -6.441406 1.140625 -3.914062 C 1.140625 -1.332031 2.917969 0.359375 5.832031 0.359375 Z M 6.941406 -2.195312 C 5.414062 -2.195312 4.582031 -2.804688 4.582031 -4.054688 C 4.582031 -5.164062 5.386719 -5.859375 7.5 -6.054688 L 10.359375 -6.277344 L 10.359375 -5.554688 C 10.359375 -3.445312 9.027344 -2.195312 6.941406 -2.195312 Z M 6.941406 -2.195312 "/></g></g></g><g fill="#000000" fill-opacity="1"><g transform="translate(149.619004, 79.180011)"><g><path d="M 7.386719 0.359375 C 9.46875 0.359375 11.246094 -0.554688 12.082031 -2.136719 L 12.304688 0 L 15.414062 0 L 15.414062 -20.664062 L 12.054688 -20.664062 L 12.054688 -11.96875 C 11.191406 -13.332031 9.5 -14.136719 7.582031 -14.136719 C 3.445312 -14.136719 0.945312 -11.082031 0.945312 -6.804688 C 0.945312 -2.554688 3.417969 0.359375 7.386719 0.359375 Z M 8.136719 -2.75 C 5.777344 -2.75 4.332031 -4.472656 4.332031 -6.914062 C 4.332031 -9.359375 5.777344 -11.109375 8.136719 -11.109375 C 10.5 -11.109375 12.027344 -9.386719 12.027344 -6.914062 C 12.027344 -4.445312 10.5 -2.75 8.136719 -2.75 Z M 8.136719 -2.75 "/></g></g></g><g fill="#000000" fill-opacity="1"><g transform="translate(166.803633, 79.180011)"><g><path d="M 3.445312 -16.46875 C 4.554688 -16.46875 5.472656 -17.386719 5.472656 -18.523438 C 5.472656 -19.664062 4.554688 -20.550781 3.445312 -20.550781 C 2.277344 -20.550781 1.359375 -19.664062 1.359375 -18.523438 C 1.359375 -17.386719 2.277344 -16.46875 3.445312 -16.46875 Z M 1.75 0 L 5.136719 0 L 5.136719 -13.71875 L 1.75 -13.71875 Z M 1.75 0 "/></g></g></g><g fill="#000000" fill-opacity="1"><g transform="translate(173.688588, 79.180011)"><g><path d="M 5.136719 0 L 5.136719 -7.386719 C 5.136719 -9.609375 6.414062 -11.054688 8.5 -11.054688 C 10.25 -11.054688 11.386719 -9.941406 11.386719 -7.636719 L 11.386719 0 L 14.773438 0 L 14.773438 -8.441406 C 14.773438 -11.996094 12.996094 -14.136719 9.554688 -14.136719 C 7.691406 -14.136719 6.027344 -13.332031 5.164062 -11.941406 L 4.886719 -13.71875 L 1.75 -13.71875 L 1.75 0 Z M 5.136719 0 "/></g></g></g><g fill="#000000" fill-opacity="1"><g transform="translate(190.04036, 79.180011)"><g><path d="M 7.886719 0.359375 C 11.46875 0.359375 13.96875 -1.445312 14.554688 -4.445312 L 11.414062 -4.445312 C 11.027344 -3.136719 9.804688 -2.417969 7.941406 -2.417969 C 5.695312 -2.417969 4.414062 -3.636719 4.164062 -6.054688 L 14.496094 -6.082031 L 14.496094 -7.109375 C 14.496094 -11.386719 11.886719 -14.136719 7.777344 -14.136719 C 3.75 -14.136719 0.945312 -11.164062 0.945312 -6.859375 C 0.945312 -2.609375 3.804688 0.359375 7.886719 0.359375 Z M 7.804688 -11.359375 C 9.832031 -11.359375 11.136719 -10.109375 11.136719 -8.222656 L 4.25 -8.222656 C 4.582031 -10.277344 5.804688 -11.359375 7.804688 -11.359375 Z M 7.804688 -11.359375 "/></g></g></g><g fill="#000000" fill-opacity="1"><g transform="translate(205.503755, 79.180011)"><g><path d="M 0.695312 -4.164062 C 0.695312 -1.472656 2.859375 0.359375 6.277344 0.359375 C 9.664062 0.359375 12.027344 -1.359375 12.027344 -4.136719 C 12.027344 -6.25 10.859375 -7.304688 8.554688 -7.832031 L 6.082031 -8.414062 C 4.914062 -8.691406 4.304688 -9.191406 4.304688 -9.96875 C 4.304688 -10.996094 5.082031 -11.609375 6.414062 -11.609375 C 7.722656 -11.609375 8.5 -10.859375 8.527344 -9.691406 L 11.746094 -9.691406 C 11.71875 -12.359375 9.636719 -14.136719 6.554688 -14.136719 C 3.386719 -14.136719 1.109375 -12.527344 1.109375 -9.832031 C 1.109375 -7.636719 2.304688 -6.472656 4.777344 -5.914062 L 7.25 -5.332031 C 8.46875 -5.054688 8.832031 -4.554688 8.832031 -3.859375 C 8.832031 -2.859375 7.972656 -2.222656 6.386719 -2.222656 C 4.832031 -2.222656 3.945312 -2.972656 3.914062 -4.164062 Z M 0.695312 -4.164062 "/></g></g></g><g fill="#000000" fill-opacity="1"><g transform="translate(218.357531, 79.180011)"><g><path d="M 0.695312 -4.164062 C 0.695312 -1.472656 2.859375 0.359375 6.277344 0.359375 C 9.664062 0.359375 12.027344 -1.359375 12.027344 -4.136719 C 12.027344 -6.25 10.859375 -7.304688 8.554688 -7.832031 L 6.082031 -8.414062 C 4.914062 -8.691406 4.304688 -9.191406 4.304688 -9.96875 C 4.304688 -10.996094 5.082031 -11.609375 6.414062 -11.609375 C 7.722656 -11.609375 8.5 -10.859375 8.527344 -9.691406 L 11.746094 -9.691406 C 11.71875 -12.359375 9.636719 -14.136719 6.554688 -14.136719 C 3.386719 -14.136719 1.109375 -12.527344 1.109375 -9.832031 C 1.109375 -7.636719 2.304688 -6.472656 4.777344 -5.914062 L 7.25 -5.332031 C 8.46875 -5.054688 8.832031 -4.554688 8.832031 -3.859375 C 8.832031 -2.859375 7.972656 -2.222656 6.386719 -2.222656 C 4.832031 -2.222656 3.945312 -2.972656 3.914062 -4.164062 Z M 0.695312 -4.164062 "/></g></g></g><g fill="#000000" fill-opacity="1"><g transform="translate(231.211306, 79.180011)"><g/></g></g><g fill="#000000" fill-opacity="1"><g transform="translate(238.696829, 79.180011)"><g><path d="M 0.472656 -17.023438 L 6.414062 -17.023438 L 6.414062 0 L 9.96875 0 L 9.96875 -17.023438 L 15.914062 -17.023438 L 15.914062 -20.300781 L 0.472656 -20.300781 Z M 0.472656 -17.023438 "/></g></g></g><g fill="#000000" fill-opacity="1"><g transform="translate(255.07636, 79.180011)"><g><path d="M 7.886719 0.359375 C 11.46875 0.359375 13.96875 -1.445312 14.554688 -4.445312 L 11.414062 -4.445312 C 11.027344 -3.136719 9.804688 -2.417969 7.941406 -2.417969 C 5.695312 -2.417969 4.414062 -3.636719 4.164062 -6.054688 L 14.496094 -6.082031 L 14.496094 -7.109375 C 14.496094 -11.386719 11.886719 -14.136719 7.777344 -14.136719 C 3.75 -14.136719 0.945312 -11.164062 0.945312 -6.859375 C 0.945312 -2.609375 3.804688 0.359375 7.886719 0.359375 Z M 7.804688 -11.359375 C 9.832031 -11.359375 11.136719 -10.109375 11.136719 -8.222656 L 4.25 -8.222656 C 4.582031 -10.277344 5.804688 -11.359375 7.804688 -11.359375 Z M 7.804688 -11.359375 "/></g></g></g><g fill="#000000" fill-opacity="1"><g transform="translate(270.539755, 79.180011)"><g><path d="M 0.695312 -4.164062 C 0.695312 -1.472656 2.859375 0.359375 6.277344 0.359375 C 9.664062 0.359375 12.027344 -1.359375 12.027344 -4.136719 C 12.027344 -6.25 10.859375 -7.304688 8.554688 -7.832031 L 6.082031 -8.414062 C 4.914062 -8.691406 4.304688 -9.191406 4.304688 -9.96875 C 4.304688 -10.996094 5.082031 -11.609375 6.414062 -11.609375 C 7.722656 -11.609375 8.5 -10.859375 8.527344 -9.691406 L 11.746094 -9.691406 C 11.71875 -12.359375 9.636719 -14.136719 6.554688 -14.136719 C 3.386719 -14.136719 1.109375 -12.527344 1.109375 -9.832031 C 1.109375 -7.636719 2.304688 -6.472656 4.777344 -5.914062 L 7.25 -5.332031 C 8.46875 -5.054688 8.832031 -4.554688 8.832031 -3.859375 C 8.832031 -2.859375 7.972656 -2.222656 6.386719 -2.222656 C 4.832031 -2.222656 3.945312 -2.972656 3.914062 -4.164062 Z M 0.695312 -4.164062 "/></g></g></g><g fill="#000000" fill-opacity="1"><g transform="translate(283.393531, 79.180011)"><g><path d="M 6.414062 0 L 6.414062 -10.886719 L 9.082031 -10.886719 L 9.082031 -13.71875 L 6.414062 -13.71875 L 6.414062 -17.996094 L 3.027344 -17.996094 L 3.027344 -13.71875 L 0.390625 -13.71875 L 0.390625 -10.886719 L 3.027344 -10.886719 L 3.027344 0 Z M 6.414062 0 "/></g></g></g><g fill="#000000" fill-opacity="1"><g transform="translate(292.832588, 79.180011)"><g/></g></g><g fill="#000000" fill-opacity="1"><g transform="translate(300.328304, 79.180011)"><g><path d="M 5.804688 0 L 5.804688 -7.582031 L 10.164062 -7.582031 L 13.609375 0 L 17.496094 0 L 13.636719 -8.332031 C 16.023438 -9.304688 17.300781 -11.246094 17.300781 -13.96875 C 17.300781 -17.96875 14.609375 -20.300781 10 -20.300781 L 2.25 -20.300781 L 2.25 0 Z M 5.804688 -17.136719 L 10 -17.136719 C 12.246094 -17.136719 13.582031 -15.996094 13.582031 -13.96875 C 13.582031 -11.914062 12.246094 -10.71875 10 -10.71875 L 5.804688 -10.71875 Z M 5.804688 -17.136719 "/></g></g></g><g fill="#000000" fill-opacity="1"><g transform="translate(318.928791, 79.180011)"><g><path d="M 7.886719 0.359375 C 11.46875 0.359375 13.96875 -1.445312 14.554688 -4.445312 L 11.414062 -4.445312 C 11.027344 -3.136719 9.804688 -2.417969 7.941406 -2.417969 C 5.695312 -2.417969 4.414062 -3.636719 4.164062 -6.054688 L 14.496094 -6.082031 L 14.496094 -7.109375 C 14.496094 -11.386719 11.886719 -14.136719 7.777344 -14.136719 C 3.75 -14.136719 0.945312 -11.164062 0.945312 -6.859375 C 0.945312 -2.609375 3.804688 0.359375 7.886719 0.359375 Z M 7.804688 -11.359375 C 9.832031 -11.359375 11.136719 -10.109375 11.136719 -8.222656 L 4.25 -8.222656 C 4.582031 -10.277344 5.804688 -11.359375 7.804688 -11.359375 Z M 7.804688 -11.359375 "/></g></g></g><g fill="#000000" fill-opacity="1"><g transform="translate(334.392187, 79.180011)"><g><path d="M 1.75 6.359375 L 5.136719 6.359375 L 5.136719 -1.832031 C 6 -0.445312 7.777344 0.359375 9.832031 0.359375 C 13.914062 0.359375 16.246094 -2.75 16.246094 -7.027344 C 16.246094 -11.332031 13.691406 -14.136719 9.832031 -14.136719 C 7.75 -14.136719 5.941406 -13.21875 5.109375 -11.636719 L 4.886719 -13.71875 L 1.75 -13.71875 Z M 5.164062 -6.859375 C 5.164062 -9.332031 6.691406 -11.054688 9.027344 -11.054688 C 11.414062 -11.054688 12.832031 -9.304688 12.832031 -6.859375 C 12.832031 -4.414062 11.414062 -2.695312 9.027344 -2.695312 C 6.691406 -2.695312 5.164062 -4.386719 5.164062 -6.859375 Z M 5.164062 -6.859375 "/></g></g></g><g fill="#000000" fill-opacity="1"><g transform="translate(351.576816, 79.180011)"><g><path d="M 0.945312 -6.886719 C 0.945312 -2.609375 4.027344 0.332031 8.277344 0.332031 C 12.527344 0.332031 15.609375 -2.609375 15.609375 -6.886719 C 15.609375 -11.164062 12.527344 -14.109375 8.277344 -14.109375 C 4.027344 -14.109375 0.945312 -11.164062 0.945312 -6.886719 Z M 4.332031 -6.886719 C 4.332031 -9.386719 5.941406 -11.082031 8.277344 -11.082031 C 10.609375 -11.082031 12.21875 -9.386719 12.21875 -6.886719 C 12.21875 -4.386719 10.609375 -2.695312 8.277344 -2.695312 C 5.941406 -2.695312 4.332031 -4.386719 4.332031 -6.886719 Z M 4.332031 -6.886719 "/></g></g></g><g fill="#000000" fill-opacity="1"><g transform="translate(368.122925, 79.180011)"><g><path d="M 10.359375 -13.773438 C 9.804688 -13.914062 9.332031 -13.96875 8.859375 -13.96875 C 7.027344 -13.96875 5.722656 -13.054688 5.136719 -11.691406 L 4.945312 -13.691406 L 1.75 -13.691406 L 1.75 0 L 5.136719 0 L 5.136719 -6.664062 C 5.136719 -9.332031 6.664062 -10.636719 9.109375 -10.636719 L 10.359375 -10.636719 Z M 10.359375 -13.773438 "/></g></g></g><g fill="#000000" fill-opacity="1"><g transform="translate(379.033359, 79.180011)"><g><path d="M 6.414062 0 L 6.414062 -10.886719 L 9.082031 -10.886719 L 9.082031 -13.71875 L 6.414062 -13.71875 L 6.414062 -17.996094 L 3.027344 -17.996094 L 3.027344 -13.71875 L 0.390625 -13.71875 L 0.390625 -10.886719 L 3.027344 -10.886719 L 3.027344 0 Z M 6.414062 0 "/></g></g></g><g fill="#000000" fill-opacity="1"><g transform="translate(388.471867, 79.180011)"><g/></g></g><g fill="#000000" fill-opacity="1"><g transform="translate(395.967582, 79.180011)"><g/></g></g><g fill="#404040" fill-opacity="1"><g transform="translate(407.19544, 79.247362)"><g/></g></g></svg>