<svg width="262" height="90" viewBox="0 0 262 90" fill="none" xmlns="http://www.w3.org/2000/svg">
<g clip-path="url(#clip0_0_943)">
<rect width="262" height="90" rx="12" fill="#ECF9F7"/>
<path opacity="0.9" d="M17.204 19.644H19.772V27H21.308V19.644H23.876V18.228H17.204V19.644ZM23.7183 24.024C23.7183 25.872 25.0503 27.144 26.8863 27.144C28.7223 27.144 30.0543 25.872 30.0543 24.024C30.0543 22.176 28.7223 20.904 26.8863 20.904C25.0503 20.904 23.7183 22.176 23.7183 24.024ZM25.1823 24.024C25.1823 22.944 25.8783 22.212 26.8863 22.212C27.8943 22.212 28.5903 22.944 28.5903 24.024C28.5903 25.104 27.8943 25.836 26.8863 25.836C25.8783 25.836 25.1823 25.104 25.1823 24.024ZM33.4122 27V22.296H34.5642V21.072H33.4122V19.224H31.9482V21.072H30.8082V22.296H31.9482V27H33.4122ZM37.4431 27.156C38.3671 27.156 39.1711 26.736 39.4231 26.124L39.5311 27H40.8151V23.4C40.8151 21.756 39.8311 20.892 38.2351 20.892C36.6271 20.892 35.5711 21.732 35.5711 23.016H36.8191C36.8191 22.392 37.2991 22.032 38.1631 22.032C38.9071 22.032 39.3871 22.356 39.3871 23.16V23.292L37.6111 23.424C36.2071 23.532 35.4151 24.216 35.4151 25.308C35.4151 26.424 36.1831 27.156 37.4431 27.156ZM37.9231 26.052C37.2631 26.052 36.9031 25.788 36.9031 25.248C36.9031 24.768 37.2511 24.468 38.1631 24.384L39.3991 24.288V24.6C39.3991 25.512 38.8231 26.052 37.9231 26.052ZM43.9693 27V18.072H42.5173V27H43.9693ZM52.9034 23.976C54.6554 23.976 55.8074 22.788 55.8074 21.096C55.8074 19.38 54.6674 18.228 52.9034 18.228H49.4354V27H50.9714V23.976H52.9034ZM52.6034 19.596C53.6234 19.596 54.1994 20.124 54.1994 21.084C54.1994 22.044 53.6354 22.608 52.5794 22.608H50.9714V19.596H52.6034ZM59.4825 27.156C61.0305 27.156 62.1105 26.376 62.3625 25.08H61.0065C60.8385 25.644 60.3105 25.956 59.5065 25.956C58.5345 25.956 57.9825 25.428 57.8745 24.384L62.3385 24.372V23.928C62.3385 22.08 61.2105 20.892 59.4345 20.892C57.6945 20.892 56.4825 22.176 56.4825 24.036C56.4825 25.872 57.7185 27.156 59.4825 27.156ZM59.4465 22.092C60.3225 22.092 60.8865 22.632 60.8865 23.448H57.9105C58.0545 22.56 58.5825 22.092 59.4465 22.092ZM67.4702 21.048C67.2302 20.988 67.0262 20.964 66.8222 20.964C66.0302 20.964 65.4662 21.36 65.2142 21.948L65.1302 21.084H63.7502V27H65.2142V24.12C65.2142 22.968 65.8742 22.404 66.9302 22.404H67.4702V21.048ZM68.1539 24.024C68.1539 25.908 69.3299 27.156 71.1299 27.156C72.6779 27.156 73.8299 26.208 74.0099 24.828H72.5339C72.3779 25.476 71.8619 25.836 71.1299 25.836C70.1939 25.836 69.6179 25.14 69.6179 24.024C69.6179 22.908 70.2419 22.2 71.1779 22.2C71.8739 22.2 72.3659 22.548 72.5339 23.22H73.9979C73.8419 21.792 72.7379 20.892 71.1179 20.892C69.3659 20.892 68.1539 22.188 68.1539 24.024ZM77.9916 27.156C79.5396 27.156 80.6196 26.376 80.8716 25.08H79.5156C79.3476 25.644 78.8196 25.956 78.0156 25.956C77.0436 25.956 76.4916 25.428 76.3836 24.384L80.8476 24.372V23.928C80.8476 22.08 79.7196 20.892 77.9436 20.892C76.2036 20.892 74.9916 22.176 74.9916 24.036C74.9916 25.872 76.2276 27.156 77.9916 27.156ZM77.9556 22.092C78.8316 22.092 79.3956 22.632 79.3956 23.448H76.4196C76.5636 22.56 77.0916 22.092 77.9556 22.092ZM83.7233 27V23.808C83.7233 22.848 84.2753 22.224 85.1753 22.224C85.9313 22.224 86.4233 22.704 86.4233 23.7V27H87.8873V23.352C87.8873 21.816 87.1193 20.892 85.6313 20.892C84.8273 20.892 84.1073 21.24 83.7353 21.84L83.6153 21.072H82.2593V27H83.7233ZM91.5817 27V22.296H92.7337V21.072H91.5817V19.224H90.1177V21.072H88.9777V22.296H90.1177V27H91.5817ZM95.6127 27.156C96.5367 27.156 97.3407 26.736 97.5927 26.124L97.7007 27H98.9847V23.4C98.9847 21.756 98.0007 20.892 96.4047 20.892C94.7967 20.892 93.7407 21.732 93.7407 23.016H94.9887C94.9887 22.392 95.4687 22.032 96.3327 22.032C97.0767 22.032 97.5567 22.356 97.5567 23.16V23.292L95.7807 23.424C94.3767 23.532 93.5847 24.216 93.5847 25.308C93.5847 26.424 94.3527 27.156 95.6127 27.156ZM96.0927 26.052C95.4327 26.052 95.0727 25.788 95.0727 25.248C95.0727 24.768 95.4207 24.468 96.3327 24.384L97.5687 24.288V24.6C97.5687 25.512 96.9927 26.052 96.0927 26.052ZM100.327 23.904C100.327 25.62 101.431 26.88 103.111 26.88C103.963 26.88 104.695 26.532 105.067 25.98V26.964C105.067 27.948 104.419 28.584 103.411 28.584C102.511 28.584 101.923 28.128 101.827 27.36H100.363C100.543 28.944 101.707 29.916 103.411 29.916C105.331 29.916 106.519 28.68 106.519 26.7V21.072H105.163L105.079 21.888C104.731 21.252 104.035 20.88 103.147 20.88C101.455 20.88 100.327 22.176 100.327 23.904ZM101.803 23.868C101.803 22.896 102.427 22.164 103.399 22.164C104.419 22.164 105.031 22.86 105.031 23.868C105.031 24.9 104.407 25.608 103.399 25.608C102.439 25.608 101.803 24.864 101.803 23.868ZM110.926 27.156C112.474 27.156 113.554 26.376 113.806 25.08H112.45C112.282 25.644 111.754 25.956 110.95 25.956C109.978 25.956 109.426 25.428 109.318 24.384L113.782 24.372V23.928C113.782 22.08 112.654 20.892 110.878 20.892C109.138 20.892 107.926 22.176 107.926 24.036C107.926 25.872 109.162 27.156 110.926 27.156ZM110.89 22.092C111.766 22.092 112.33 22.632 112.33 23.448H109.354C109.498 22.56 110.026 22.092 110.89 22.092Z" fill="#2B2F34"/>
<path d="M148.532 92.0752L140 89.5886L167.656 -5.30372L169.015 -6.04761C170.016 -6.59872 175.778 -9.11673 190.87 -4.71806C199.225 -2.28315 207.607 3.74314 215.003 9.05811C220.959 13.3394 226.584 17.3831 230.839 18.6232C240.455 21.4258 248.099 20.1822 248.172 20.1669L254.065 19.1707L237.088 77.42L234.814 77.834C234.444 77.894 225.581 79.4521 214.087 76.1024C208.667 74.5227 202.344 70.9408 195.653 67.1465C188.13 62.8836 180.353 58.4757 173.072 56.3536C164.793 53.9409 161.538 54.3516 159.453 54.6037L148.532 92.0752Z" fill="#C5EDE6"/>
</g>
<rect x="0.5" y="0.5" width="261" height="89" rx="11.5" stroke="#1FB79D"/>
<defs>
<clipPath id="clip0_0_943">
<rect width="262" height="90" rx="12" fill="white"/>
</clipPath>
</defs>
</svg>
